PathFileType	4	(X/Y/Z)	4_coords_data.trc
DataRate	CameraRate	NumFrames	NumMarkers	Units	OrigDataRate	OrigDataStartFrame	OrigNumFrames
30.0	30.0	6	21	m	30.0	29	57
Frame#	Time	THUMB_TIP	THUMB_IP	THUMB_MCP	THUMB_CMC	INDEX_TIP	INDEX_DIP	INDEX_PIP	INDEX_MCP	MIDDLE_TIP	MIDDLE_DIP	MIDDLE_PIP	MIDDLE_MCP	RING_TIP	RING_DIP	RING_PIP	RING_MCP	PINKY_TIP	PINKY_DIP	PINKY_PIP	PINKY_MCP	WRIST
X1	Y1	Z1	X2	Y2	Z2	X3	Y3	Z3	X4	Y4	Z4	X5	Y5	Z5	X6	Y6	Z6	X7	Y7	Z7	X8	Y8	Z8	X9	Y9	Z9	X10	Y10	Z10	X11	Y11	Z11	X12	Y12	Z12	X13	Y13	Z13	X14	Y14	Z14	X15	Y15	Z15	X16	Y16	Z16	X17	Y17	Z17	X18	Y18	Z18	X19	Y19	Z19	X20	Y20	Z20	X21	Y21	Z21
28	0.9333333333333333	-0.003915090084075927	-0.04293479919433594	1.0580400390625	-0.016022499084472657	-0.06060810089111328	1.075199951171875	-0.03678670120239258	-0.06926560211181641	1.0985999755859375	-0.046843399047851564	-0.0374005012512207	1.109	-0.04294620132446289	-0.0555364990234375	1.08093994140625	-0.030997699737548828	-0.06100540161132813	1.0671199951171875	-0.030902700424194338	-0.06710549926757813	1.0464200439453124	-0.07430290222167969	-0.06355699920654297	1.0533499755859375	-0.033492298126220704	-0.0422140007019043	1.08052001953125	-0.0282367000579834	-0.040660598754882815	1.072010009765625	-0.024357099533081055	-0.043335601806640624	1.0421600341796875	-0.07171610260009766	-0.03945920181274414	1.043280029296875	-0.03854990005493164	-0.023577499389648437	1.0834300537109376	-0.030094499588012694	-0.02146190071105957	1.0778499755859374	-0.01865730094909668	-0.02053030014038086	1.0509100341796875	-0.06475060272216797	-0.014879199981689453	1.0430400390625	-0.0453218994140625	-0.005120359897613526	1.0811300048828125	-0.03036400032043457	-0.004432519912719726	1.072469970703125	-0.024656299591064454	0.00068258798122406	1.051739990234375	-0.059777400970458985	0.009004150390625	1.046800048828125	-0.08074359893798828	-0.009215250015258789	1.125219970703125
29	0.9666666666666667	-0.002011780023574829	-0.04719150161743164	1.0583399658203125	-0.016299699783325194	-0.06285139846801757	1.07631005859375	-0.03787860107421875	-0.06916919708251953	1.09943994140625	-0.04808340072631836	-0.03724869918823242	1.109489990234375	-0.04181800079345703	-0.054569000244140624	1.0811700439453125	-0.030172000885009764	-0.06074509811401367	1.0656600341796876	-0.03183629989624023	-0.0674052963256836	1.0444200439453124	-0.07478050231933593	-0.06286709976196289	1.0533699951171875	-0.03461059951782226	-0.04160860061645508	1.0810799560546875	-0.02631920051574707	-0.04049459838867187	1.06893994140625	-0.025218900680541993	-0.04377249908447266	1.03947998046875	-0.07246399688720703	-0.038597301483154295	1.0433900146484374	-0.039666599273681644	-0.022878400802612303	1.08297998046875	-0.028345699310302733	-0.02108639907836914	1.073739990234375	-0.0206068000793457	-0.020132099151611328	1.04522998046875	-0.06702149963378906	-0.014038399696350097	1.0433599853515625	-0.04468310165405273	-0.005385650157928467	1.0781500244140625	-0.02988479995727539	-0.003753910064697265	1.0672099609375	-0.027332399368286135	0.0019968500137329103	1.04606005859375	-0.06301449966430664	0.009800430297851562	1.0468199462890626	-0.08177469635009765	-0.008953370094299317	1.1263499755859374
30	1.0	-0.000338277012109756	-0.05246160125732422	1.0599599609375	-0.01689340019226074	-0.06491619873046875	1.0778199462890625	-0.039904399871826174	-0.06903510284423828	1.1006600341796875	-0.049805301666259766	-0.03709640121459961	1.1106600341796875	-0.03743539810180664	-0.05363339996337891	1.0813299560546874	-0.027663900375366212	-0.06002939987182617	1.0637900390625	-0.03311920166015625	-0.06740740203857422	1.041510009765625	-0.07511289978027344	-0.06163610076904297	1.0535799560546875	-0.03446009826660156	-0.04011019897460937	1.0816199951171874	-0.0226382999420166	-0.040210700988769534	1.0655699462890624	-0.02634980010986328	-0.04373249816894531	1.03631005859375	-0.07292859649658204	-0.03709659957885742	1.044010009765625	-0.03777740097045899	-0.022325899124145506	1.0824000244140626	-0.02415719985961914	-0.02057780075073242	1.06918994140625	-0.022202600479125978	-0.019292999267578125	1.0397900390625	-0.06847409820556641	-0.012800000190734863	1.043949951171875	-0.04192060089111328	-0.0056541900634765625	1.0760400390625	-0.027936700820922852	-0.002752909898757934	1.0630999755859376	-0.029361700057983397	0.003990799903869629	1.04252001953125	-0.06507389831542969	0.010981300354003905	1.0476800537109374	-0.08358830261230468	-0.008596630096435546	1.12747998046875
31	1.0333333333333334	-0.000529027998447418	-0.05798410034179687	1.0615699462890624	-0.018602399826049804	-0.06715570068359375	1.07997998046875	-0.042508201599121095	-0.06915409851074218	1.1018299560546876	-0.05263119888305664	-0.03683689880371094	1.1128199462890624	-0.031549800872802736	-0.0539286994934082	1.0763399658203125	-0.024038799285888673	-0.06039989852905273	1.0583699951171874	-0.03507089996337891	-0.06765709686279296	1.0371700439453124	-0.07501750183105468	-0.06013589859008789	1.05372998046875	-0.02983449935913086	-0.039858001708984375	1.0784300537109375	-0.01800149917602539	-0.04054869842529297	1.05993994140625	-0.027775699615478516	-0.043180000305175784	1.032239990234375	-0.07323419952392578	-0.03527000045776367	1.04472998046875	-0.030387500762939453	-0.022353099822998046	1.0786300048828126	-0.0180221004486084	-0.020481700897216796	1.0621700439453126	-0.02400160026550293	-0.017809099197387695	1.0335699462890624	-0.06894740295410157	-0.011158599853515624	1.0446600341796874	-0.035567901611328126	-0.005807789802551269	1.0725799560546876	-0.024753400802612305	-0.0012926900386810302	1.058550048828125	-0.03091270065307617	0.006797339916229248	1.0399000244140626	-0.06584929656982422	0.012597599983215331	1.04881005859375	-0.08559619903564453	-0.007774940013885498	1.1288800048828125
32	1.0666666666666667	-0.0014577599763870238	-0.0633300018310547	1.0628800048828124	-0.02099180030822754	-0.06945390319824218	1.08202001953125	-0.045115299224853515	-0.06932250213623047	1.102989990234375	-0.056346298217773434	-0.03724560165405273	1.11518994140625	-0.023494400024414063	-0.05502439880371094	1.071510009765625	-0.021564199447631837	-0.06162310028076172	1.0519200439453125	-0.037856700897216794	-0.0678102035522461	1.032699951171875	-0.07480449676513672	-0.058793899536132815	1.0548699951171876	-0.022146499633789063	-0.041207000732421874	1.072969970703125	-0.014246700286865234	-0.04164139938354492	1.05347998046875	-0.029641000747680665	-0.042350399017333985	1.0276600341796875	-0.07310310363769532	-0.03375870132446289	1.0456500244140625	-0.021167600631713867	-0.02292729949951172	1.071469970703125	-0.012719400405883789	-0.020114099502563477	1.053300048828125	-0.026024599075317383	-0.015898200035095216	1.0279100341796874	-0.06870919799804688	-0.009757200241088866	1.0455999755859375	-0.027213499069213866	-0.006249829769134521	1.06875	-0.02128409957885742	0.000638719022274017	1.0540400390625	-0.031675500869750975	0.009807550430297851	1.037949951171875	-0.06545770263671875	0.01392770004272461	1.0499599609375	-0.08740080261230469	-0.006961319923400879	1.1301800537109374
33	1.1	-0.0031410999298095697	-0.06620120239257812	1.0652099609375	-0.022971799850463867	-0.07077980041503906	1.0838499755859374	-0.047256099700927735	-0.06960579681396484	1.1043699951171875	-0.059094799041748046	-0.03706100082397461	1.1171700439453125	-0.01488860034942627	-0.058094799041748045	1.064530029296875	-0.01959830093383789	-0.06355220031738282	1.044219970703125	-0.040338699340820315	-0.06749359893798829	1.0291600341796876	-0.0736260986328125	-0.05800949859619141	1.055699951171875	-0.014417099952697753	-0.04373529815673828	1.0676600341796876	-0.011161999702453613	-0.042818698883056644	1.04577001953125	-0.03129280090332031	-0.041295501708984376	1.023489990234375	-0.07245899963378906	-0.03274369812011719	1.046800048828125	-0.012070699691772461	-0.02278300094604492	1.0651500244140626	-0.00905661964416504	-0.01894849967956543	1.0441800537109376	-0.028142200469970704	-0.014236599922180175	1.0226699829101562	-0.06785070037841796	-0.00891238021850586	1.0468599853515625	-0.019458200454711912	-0.00526455020904541	1.0634100341796875	-0.01830459976196289	0.003706170082092285	1.0474300537109376	-0.03246799850463867	0.013065799713134766	1.034800048828125	-0.06386740112304687	0.014714099884033204	1.0508399658203125	-0.08910639953613281	-0.006327000141143799	1.1314200439453126
